<?xml version="1.0" encoding="iso-8859-1"?>
<!-- Generator: Adobe Illustrator 18.0.0, SVG Export Plug-In . SVG Version: 6.00 Build 0)  -->
<!DOCTYPE svg PUBLIC "-//W3C//DTD SVG 1.1//EN" "http://www.w3.org/Graphics/SVG/1.1/DTD/svg11.dtd">
<svg version="1.1" id="Capa_1" xmlns="http://www.w3.org/2000/svg" xmlns:xlink="http://www.w3.org/1999/xlink" x="0px" y="0px"
	 viewBox="0 0 109.705 109.705" style="enable-background:new 0 0 109.705 109.705;" xml:space="preserve">
<g>
	<path d="M109.649,53.08C108.724,32.051,96.341,12.09,76.391,4.454c-21.23-8.126-46.42-5.358-61.529,12.6
		c-0.506,0.541-0.986,1.104-1.467,1.667c-0.674-0.223-1.371,0.498-0.964,1.122c-6.973,8.69-11.008,19.73-12.157,31.112
		c-2.041,20.215,7.448,38.171,24.195,49.103c18.001,11.752,41.189,12.93,59.775,1.934C101.404,91.841,110.51,72.673,109.649,53.08z
		 M106.577,66.204c-16.361,14.012-35.171,22.31-56.989,20.762c-15.631-1.109-34.849-4.53-45.344-17.302
		c-0.131-0.467-0.267-0.932-0.383-1.405c-0.943-3.832-1.428-7.804-1.496-11.814c11.481,14.962,35.827,17.506,53.093,17.04
		c16.926-0.455,42.617-5.122,51.737-21.786C107.588,56.581,107.386,61.48,106.577,66.204z M7.731,30.787
		c12.813,14.111,34.206,15.295,51.826,12.424c12.64-2.059,30.978-8.158,36.926-20.808c1.741,2.328,3.278,4.815,4.607,7.421
		c-0.044,0.084-0.08,0.176-0.094,0.283c-1.078,8.493-9.171,14.051-16.083,17.842c-7.573,4.153-16.078,6.848-24.551,8.41
		c-9.921,1.829-20.484,0.548-30.173-1.87c-5.553-1.386-11.043-3.54-15.88-6.615c-1.148-0.729-9.267-5.93-9.756-8.35
		C5.386,36.533,6.45,33.607,7.731,30.787z M15.973,51c11.398,6.715,26.861,9.041,39.923,7.93
		c10.389-0.883,20.813-4.471,29.978-9.335c6.998-3.713,14.543-9.343,16.343-17.409c2.488,5.518,4.096,11.481,4.784,17.521
		C95.807,66.2,74.321,71.061,55.458,71.767c-18.099,0.678-40.552-2.651-53.097-17.103c0.065-4.521,0.663-9.067,1.764-13.499
		C6.433,44.691,14.742,50.274,15.973,51z M95.511,21.151c-5.924,12.245-23.09,17.746-35.391,20.176
		c-8.793,1.737-18.021,2.016-26.86,0.54c-9.705-1.62-17.444-6.238-25.055-12.12c1.495-3.128,3.27-6.108,5.298-8.884
		c10.571,9.498,27.56,12.24,41.175,11.967c13.349-0.268,29.129-5.234,32.836-19.486C90.512,15.609,93.181,18.239,95.511,21.151z
		 M82.566,10.11c1.287,0.715,2.523,1.495,3.713,2.328C81.532,26.708,66.2,30.679,52.542,30.697
		c-12.829,0.017-27.608-3.206-38.018-11.182c0.255-0.326,0.507-0.654,0.769-0.974c3.306-3.166,6.798-5.946,10.507-8.262
		c2.416,3.306,7.009,5.497,10.461,7.118c4.977,2.337,10.367,3.644,15.85,3.9c10.243,0.479,19.856-4.84,23.126-14.599
		C77.783,7.681,80.244,8.819,82.566,10.11z M37.844,4.719c2.553,5.426,9.651,7.131,15.237,6.945
		c4.031-0.134,12.238-2.699,12.085-7.916c2.913,0.599,5.785,1.402,8.566,2.394c-4.572,9.082-12.06,13.59-22.658,13.054
		c-5.097-0.258-10.179-1.816-14.798-3.913c-3.324-1.509-6.133-3.955-9.258-5.741C30.438,7.527,34.039,5.902,37.844,4.719z
		 M63.477,3.425c-0.785,1.69-1.335,3.154-3.095,4.397c-2.348,1.658-5.483,2.089-8.271,2.195c-4.925,0.188-10.523-1.323-13.301-5.588
		c3.315-0.955,6.778-1.586,10.416-1.835C53.887,2.275,58.717,2.58,63.477,3.425z M57.233,107.409
		c-12.757,0.345-25.437-4.151-35.372-11.968c11.141,6.11,25.322,8.033,37.4,7.77c8.774-0.191,19.814-2.061,28.723-6.665
		C79.28,103.173,68.441,107.107,57.233,107.409z M97.587,86.962c-5.031,4.125-9.841,7.827-16.145,10.321
		c-7.44,2.945-15.525,4.06-23.482,4.213c-14.5,0.279-27.751-3.673-40.524-9.945C12.091,86.325,7.857,80.019,5.291,72.94
		c3.405,4.285,8.689,7.175,13.649,9.22c9.112,3.756,18.892,5.544,28.668,6.466c20.435,1.928,45.409-4.231,58.708-21.034
		c-0.066,0.332-0.125,0.666-0.197,0.996C104.625,75.44,101.64,81.631,97.587,86.962z"/>
</g>
<g>
</g>
<g>
</g>
<g>
</g>
<g>
</g>
<g>
</g>
<g>
</g>
<g>
</g>
<g>
</g>
<g>
</g>
<g>
</g>
<g>
</g>
<g>
</g>
<g>
</g>
<g>
</g>
<g>
</g>
</svg>
